# xmcd CD database file
#
# Track frame offsets:
#	150
#	12691
#	27168
#	35716
#	48001
#	58481
#	68215
#	77445
#	107449
#	163779
#	182168
#
# Disc length: 2714 seconds
#
# Revision: 0
# Processed by: cddbd v1.5.2PL0 Copyright (c) Steve Scherf et al.
# Submitted via: CDex 1.70beta2
#
DISCID=8f0a980b
DTITLE=Ingebrigt Haker Flaten - Double Bass
DYEAR=2003
DGENRE=Avantgarde
TTITLE0=Danger Music
TTITLE1=The Joy of German Bowing I
TTITLE2=Slides
TTITLE3=Ulv Ulv
TTITLE4=Babylon
TTITLE5=Kindred Spirit
TTITLE6=Ggahmeshu
TTITLE7=I loves...
TTITLE8=Swedish Impressions
TTITLE9=Cats and Dogs
TTITLE10=The Joy of German Bowing II
EXTD=YEAR: 2003
EXTT0=
EXTT1=
EXTT2=
EXTT3=
EXTT4=
EXTT5=
EXTT6=
EXTT7=
EXTT8=
EXTT9=
EXTT10=
PLAYORDER=
